<svg width="710" height="151" viewBox="0 0 710 151" fill="none" xmlns="http://www.w3.org/2000/svg">
<path d="M148.574 103V96.6H176.814V103H148.574ZM148.574 53.4V47H176.814V53.4H148.574ZM148.574 75.8V69.4H175.214V75.8H148.574ZM144.814 47H151.614V103H144.814V47ZM189.918 91.72C190.665 92.84 191.518 93.88 192.478 94.84C193.438 95.8 194.532 96.5733 195.758 97.16C197.038 97.6933 198.425 97.96 199.918 97.96C201.732 97.96 203.145 97.56 204.158 96.76C205.225 95.9067 205.758 94.76 205.758 93.32C205.758 92.04 205.332 90.9733 204.478 90.12C203.678 89.2133 202.638 88.4667 201.358 87.88C200.078 87.24 198.718 86.6533 197.278 86.12C195.678 85.48 194.052 84.7333 192.398 83.88C190.798 82.9733 189.438 81.8267 188.318 80.44C187.252 79 186.718 77.2133 186.718 75.08C186.718 72.8933 187.278 71.08 188.398 69.64C189.572 68.2 191.065 67.1333 192.878 66.44C194.745 65.7467 196.665 65.4 198.638 65.4C200.612 65.4 202.452 65.72 204.158 66.36C205.918 67 207.465 67.8533 208.798 68.92C210.132 69.9867 211.172 71.2133 211.918 72.6L206.798 75.88C205.785 74.4933 204.505 73.3467 202.958 72.44C201.465 71.5333 199.758 71.08 197.838 71.08C196.505 71.08 195.358 71.3733 194.398 71.96C193.438 72.5467 192.958 73.4533 192.958 74.68C192.958 75.64 193.332 76.4933 194.078 77.24C194.825 77.9867 195.785 78.6533 196.958 79.24C198.132 79.8267 199.358 80.3867 200.638 80.92C202.772 81.7733 204.718 82.7067 206.478 83.72C208.238 84.68 209.625 85.8533 210.638 87.24C211.705 88.6267 212.238 90.4133 212.238 92.6C212.238 95.8 211.065 98.4667 208.718 100.6C206.425 102.733 203.385 103.8 199.598 103.8C197.145 103.8 194.932 103.373 192.958 102.52C190.985 101.613 189.305 100.467 187.918 99.08C186.585 97.6933 185.572 96.28 184.878 94.84L189.918 91.72ZM223.544 84.6C223.544 87.16 224.077 89.4267 225.144 91.4C226.264 93.3733 227.757 94.9467 229.624 96.12C231.544 97.24 233.704 97.8 236.104 97.8C238.077 97.8 239.917 97.5067 241.624 96.92C243.384 96.28 244.904 95.4533 246.184 94.44C247.464 93.3733 248.371 92.2533 248.904 91.08V99.08C247.624 100.573 245.784 101.747 243.384 102.6C241.037 103.4 238.611 103.8 236.104 103.8C232.531 103.8 229.304 102.973 226.424 101.32C223.544 99.6667 221.251 97.4 219.544 94.52C217.891 91.5867 217.064 88.28 217.064 84.6C217.064 80.8667 217.891 77.56 219.544 74.68C221.251 71.8 223.544 69.5333 226.424 67.88C229.304 66.2267 232.531 65.4 236.104 65.4C238.611 65.4 241.037 65.8267 243.384 66.68C245.784 67.48 247.624 68.6267 248.904 70.12V78.12C248.371 76.8933 247.464 75.7733 246.184 74.76C244.904 73.7467 243.384 72.9467 241.624 72.36C239.917 71.72 238.077 71.4 236.104 71.4C233.704 71.4 231.544 71.96 229.624 73.08C227.757 74.2 226.264 75.7733 225.144 77.8C224.077 79.7733 223.544 82.04 223.544 84.6ZM261.747 91.64C261.747 93.0267 262.067 94.2267 262.707 95.24C263.401 96.2533 264.334 97.0267 265.507 97.56C266.734 98.04 268.121 98.28 269.667 98.28C271.641 98.28 273.401 97.88 274.947 97.08C276.547 96.28 277.801 95.16 278.707 93.72C279.667 92.2267 280.147 90.52 280.147 88.6L281.427 93.4C281.427 95.7467 280.707 97.6933 279.267 99.24C277.881 100.787 276.147 101.933 274.067 102.68C272.041 103.427 270.014 103.8 267.987 103.8C265.747 103.8 263.641 103.347 261.667 102.44C259.747 101.48 258.201 100.12 257.027 98.36C255.854 96.6 255.267 94.4667 255.267 91.96C255.267 88.3867 256.521 85.5333 259.027 83.4C261.587 81.2133 265.134 80.12 269.667 80.12C272.334 80.12 274.547 80.44 276.307 81.08C278.121 81.6667 279.561 82.36 280.627 83.16C281.694 83.9067 282.414 84.52 282.787 85V88.76C280.921 87.48 279.001 86.5733 277.027 86.04C275.054 85.4533 272.947 85.16 270.707 85.16C268.627 85.16 266.921 85.4267 265.587 85.96C264.307 86.4933 263.347 87.24 262.707 88.2C262.067 89.16 261.747 90.3067 261.747 91.64ZM260.787 74.68L257.667 69.96C259.054 68.9467 260.947 67.9333 263.347 66.92C265.801 65.9067 268.734 65.4 272.147 65.4C275.027 65.4 277.534 65.8533 279.667 66.76C281.854 67.6133 283.534 68.8667 284.707 70.52C285.934 72.1733 286.547 74.2 286.547 76.6V103H280.147V77.48C280.147 76.2 279.934 75.16 279.507 74.36C279.081 73.5067 278.467 72.84 277.667 72.36C276.921 71.88 276.041 71.5333 275.027 71.32C274.014 71.1067 272.947 71 271.827 71C270.014 71 268.361 71.2133 266.867 71.64C265.427 72.0667 264.201 72.5733 263.187 73.16C262.174 73.7467 261.374 74.2533 260.787 74.68ZM303.383 120.6H296.983V66.2H303.383V120.6ZM334.183 84.6C334.183 88.5467 333.356 91.96 331.703 94.84C330.049 97.72 327.836 99.9333 325.063 101.48C322.343 103.027 319.303 103.8 315.943 103.8C312.903 103.8 310.209 103.027 307.863 101.48C305.569 99.9333 303.756 97.72 302.423 94.84C301.143 91.96 300.503 88.5467 300.503 84.6C300.503 80.6 301.143 77.1867 302.423 74.36C303.756 71.48 305.569 69.2667 307.863 67.72C310.209 66.1733 312.903 65.4 315.943 65.4C319.303 65.4 322.343 66.1733 325.063 67.72C327.836 69.2667 330.049 71.48 331.703 74.36C333.356 77.1867 334.183 80.6 334.183 84.6ZM327.703 84.6C327.703 81.7733 327.116 79.3733 325.943 77.4C324.823 75.4267 323.303 73.9333 321.383 72.92C319.516 71.9067 317.436 71.4 315.143 71.4C313.276 71.4 311.436 71.9067 309.623 72.92C307.809 73.9333 306.316 75.4267 305.143 77.4C303.969 79.3733 303.383 81.7733 303.383 84.6C303.383 87.4267 303.969 89.8267 305.143 91.8C306.316 93.7733 307.809 95.2667 309.623 96.28C311.436 97.2933 313.276 97.8 315.143 97.8C317.436 97.8 319.516 97.2933 321.383 96.28C323.303 95.2667 324.823 93.7733 325.943 91.8C327.116 89.8267 327.703 87.4267 327.703 84.6ZM357.248 103.8C353.834 103.8 350.794 103 348.128 101.4C345.514 99.7467 343.461 97.48 341.968 94.6C340.528 91.72 339.808 88.3867 339.808 84.6C339.808 80.76 340.554 77.4 342.048 74.52C343.594 71.64 345.728 69.4 348.448 67.8C351.221 66.2 354.421 65.4 358.048 65.4C361.674 65.4 364.768 66.1733 367.328 67.72C369.941 69.2133 371.941 71.3733 373.328 74.2C374.714 77.0267 375.408 80.3867 375.408 84.28C375.408 84.6533 375.381 85.0533 375.328 85.48C375.328 85.8533 375.328 86.0933 375.328 86.2H343.888V80.76H370.288L367.728 84.44C367.888 84.1733 368.048 83.7733 368.208 83.24C368.368 82.6533 368.448 82.1733 368.448 81.8C368.448 79.6133 367.994 77.72 367.088 76.12C366.234 74.52 365.034 73.2667 363.488 72.36C361.941 71.4533 360.128 71 358.048 71C355.594 71 353.488 71.5333 351.728 72.6C350.021 73.6133 348.688 75.1067 347.728 77.08C346.821 79 346.341 81.3733 346.288 84.2C346.288 87.08 346.741 89.5333 347.648 91.56C348.554 93.5867 349.888 95.1333 351.648 96.2C353.408 97.2667 355.541 97.8 358.048 97.8C360.554 97.8 362.768 97.2667 364.688 96.2C366.608 95.08 368.234 93.4 369.568 91.16L374.768 94.44C372.848 97.5333 370.421 99.88 367.488 101.48C364.608 103.027 361.194 103.8 357.248 103.8ZM408.564 47H415.364V96.6H437.364V103H408.564V47ZM447.06 91.64C447.06 93.0267 447.38 94.2267 448.02 95.24C448.713 96.2533 449.646 97.0267 450.82 97.56C452.046 98.04 453.433 98.28 454.98 98.28C456.953 98.28 458.713 97.88 460.26 97.08C461.86 96.28 463.113 95.16 464.02 93.72C464.98 92.2267 465.46 90.52 465.46 88.6L466.74 93.4C466.74 95.7467 466.02 97.6933 464.58 99.24C463.193 100.787 461.46 101.933 459.38 102.68C457.353 103.427 455.326 103.8 453.3 103.8C451.06 103.8 448.953 103.347 446.98 102.44C445.06 101.48 443.513 100.12 442.34 98.36C441.166 96.6 440.58 94.4667 440.58 91.96C440.58 88.3867 441.833 85.5333 444.34 83.4C446.9 81.2133 450.446 80.12 454.98 80.12C457.646 80.12 459.86 80.44 461.62 81.08C463.433 81.6667 464.873 82.36 465.94 83.16C467.006 83.9067 467.726 84.52 468.1 85V88.76C466.233 87.48 464.313 86.5733 462.34 86.04C460.366 85.4533 458.26 85.16 456.02 85.16C453.94 85.16 452.233 85.4267 450.9 85.96C449.62 86.4933 448.66 87.24 448.02 88.2C447.38 89.16 447.06 90.3067 447.06 91.64ZM446.1 74.68L442.98 69.96C444.366 68.9467 446.26 67.9333 448.66 66.92C451.113 65.9067 454.046 65.4 457.46 65.4C460.34 65.4 462.846 65.8533 464.98 66.76C467.166 67.6133 468.846 68.8667 470.02 70.52C471.246 72.1733 471.86 74.2 471.86 76.6V103H465.46V77.48C465.46 76.2 465.246 75.16 464.82 74.36C464.393 73.5067 463.78 72.84 462.98 72.36C462.233 71.88 461.353 71.5333 460.34 71.32C459.326 71.1067 458.26 71 457.14 71C455.326 71 453.673 71.2133 452.18 71.64C450.74 72.0667 449.513 72.5733 448.5 73.16C447.486 73.7467 446.686 74.2533 446.1 74.68ZM489.095 88.6C489.095 91.5333 489.762 93.8 491.095 95.4C492.429 97 494.375 97.8 496.935 97.8C498.802 97.8 500.429 97.4267 501.815 96.68C503.255 95.88 504.349 94.7867 505.095 93.4C505.895 92.0133 506.295 90.4133 506.295 88.6V66.2H512.695V103H506.295V97.24C505.069 99.4267 503.549 101.08 501.735 102.2C499.922 103.267 497.789 103.8 495.335 103.8C491.495 103.8 488.429 102.493 486.135 99.88C483.842 97.2667 482.695 93.7733 482.695 89.4V66.2H489.095V88.6ZM548.327 80.6C548.327 77.56 547.66 75.2667 546.327 73.72C544.993 72.1733 543.047 71.4 540.487 71.4C538.62 71.4 536.967 71.8 535.527 72.6C534.14 73.3467 533.047 74.4133 532.247 75.8C531.5 77.1867 531.127 78.7867 531.127 80.6V103H524.727V66.2H531.127V71.96C532.353 69.72 533.873 68.0667 535.687 67C537.553 65.9333 539.687 65.4 542.087 65.4C545.98 65.4 549.047 66.7067 551.287 69.32C553.58 71.88 554.727 75.3733 554.727 79.8V103H548.327V80.6ZM569.638 84.6C569.638 87.16 570.171 89.4267 571.238 91.4C572.358 93.3733 573.851 94.9467 575.718 96.12C577.638 97.24 579.798 97.8 582.198 97.8C584.171 97.8 586.011 97.5067 587.718 96.92C589.478 96.28 590.998 95.4533 592.278 94.44C593.558 93.3733 594.464 92.2533 594.998 91.08V99.08C593.718 100.573 591.878 101.747 589.478 102.6C587.131 103.4 584.704 103.8 582.198 103.8C578.624 103.8 575.398 102.973 572.518 101.32C569.638 99.6667 567.344 97.4 565.638 94.52C563.984 91.5867 563.158 88.28 563.158 84.6C563.158 80.8667 563.984 77.56 565.638 74.68C567.344 71.8 569.638 69.5333 572.518 67.88C575.398 66.2267 578.624 65.4 582.198 65.4C584.704 65.4 587.131 65.8267 589.478 66.68C591.878 67.48 593.718 68.6267 594.998 70.12V78.12C594.464 76.8933 593.558 75.7733 592.278 74.76C590.998 73.7467 589.478 72.9467 587.718 72.36C586.011 71.72 584.171 71.4 582.198 71.4C579.798 71.4 577.638 71.96 575.718 73.08C573.851 74.2 572.358 75.7733 571.238 77.8C570.171 79.7733 569.638 82.04 569.638 84.6ZM611.361 40.6V103H604.961V40.6H611.361ZM628.561 80.6C628.561 77.56 627.894 75.2667 626.561 73.72C625.281 72.1733 623.334 71.4 620.721 71.4C618.854 71.4 617.201 71.8 615.761 72.6C614.374 73.4 613.281 74.4933 612.481 75.88C611.734 77.2667 611.361 78.84 611.361 80.6H609.281C609.281 77.6667 609.841 75.08 610.961 72.84C612.081 70.5467 613.601 68.7333 615.521 67.4C617.494 66.0667 619.761 65.4 622.321 65.4C624.881 65.4 627.094 65.9333 628.961 67C630.881 68.0667 632.348 69.6667 633.361 71.8C634.428 73.9333 634.961 76.6 634.961 79.8V103H628.561V80.6ZM661.232 103.8C657.819 103.8 654.779 103 652.112 101.4C649.499 99.7467 647.446 97.48 645.952 94.6C644.512 91.72 643.792 88.3867 643.792 84.6C643.792 80.76 644.539 77.4 646.032 74.52C647.579 71.64 649.712 69.4 652.432 67.8C655.206 66.2 658.406 65.4 662.032 65.4C665.659 65.4 668.752 66.1733 671.312 67.72C673.926 69.2133 675.926 71.3733 677.312 74.2C678.699 77.0267 679.392 80.3867 679.392 84.28C679.392 84.6533 679.366 85.0533 679.312 85.48C679.312 85.8533 679.312 86.0933 679.312 86.2H647.872V80.76H674.272L671.712 84.44C671.872 84.1733 672.032 83.7733 672.192 83.24C672.352 82.6533 672.432 82.1733 672.432 81.8C672.432 79.6133 671.979 77.72 671.072 76.12C670.219 74.52 669.019 73.2667 667.472 72.36C665.926 71.4533 664.112 71 662.032 71C659.579 71 657.472 71.5333 655.712 72.6C654.006 73.6133 652.672 75.1067 651.712 77.08C650.806 79 650.326 81.3733 650.272 84.2C650.272 87.08 650.726 89.5333 651.632 91.56C652.539 93.5867 653.872 95.1333 655.632 96.2C657.392 97.2667 659.526 97.8 662.032 97.8C664.539 97.8 666.752 97.2667 668.672 96.2C670.592 95.08 672.219 93.4 673.552 91.16L678.752 94.44C676.832 97.5333 674.406 99.88 671.472 101.48C668.592 103.027 665.179 103.8 661.232 103.8ZM694.564 66.2V103H688.164V66.2H694.564ZM705.684 73.24C704.831 72.6 704.057 72.1467 703.364 71.88C702.671 71.56 701.791 71.4 700.724 71.4C699.124 71.4 697.871 71.8 696.964 72.6C696.057 73.4 695.417 74.4933 695.044 75.88C694.724 77.2667 694.564 78.84 694.564 80.6H691.684C691.684 77.6667 692.191 75.08 693.204 72.84C694.271 70.5467 695.631 68.7333 697.284 67.4C698.937 66.0667 700.617 65.4 702.324 65.4C703.657 65.4 704.884 65.5867 706.004 65.96C707.177 66.28 708.244 66.9467 709.204 67.96L705.684 73.24Z" fill="#FEF9E2"/>
<path d="M96.0002 151C98.7617 151 101 148.761 101 146V47.1875C101 21.1266 78.3906 0 50.5002 0C22.6099 0 0.000244141 21.1266 0.000244141 47.1875V146C0.000244141 148.761 2.23882 151 5.00024 151H5.35376C7.00928 151 8.55747 150.181 9.48839 148.812L46.3656 94.5803C48.3498 91.6624 52.6507 91.6624 54.6349 94.5803L91.5121 148.812C92.443 150.181 93.9912 151 95.6467 151H96.0002Z" fill="#FEF9E2"/>
</svg>
