<svg width="50" height="75" viewBox="0 0 50 75" fill="none" xmlns="http://www.w3.org/2000/svg">
<path d="M20.4575 49.1127L20.3991 49.1786L20.3466 49.2494L2.92216 72.7749C2.87563 72.8103 2.79473 72.8477 2.68405 72.8477C2.55757 72.8477 2.47238 72.801 2.429 72.7608C2.41055 72.7437 2.40263 72.7307 2.40002 72.7257V23.3899C2.40002 11.6853 12.496 2 25.2 2C37.904 2 48 11.6853 48 23.3899V72.7257C47.9974 72.7307 47.9895 72.7437 47.971 72.7608C47.9277 72.801 47.8425 72.8477 47.716 72.8477C47.6053 72.8477 47.5244 72.8103 47.4779 72.7749L30.0534 49.2494L30.001 49.1786L29.9425 49.1127C27.4653 46.3197 22.9348 46.3197 20.4575 49.1127Z" stroke="white" stroke-width="4"/>
</svg>
