<svg width="200" height="200" viewBox="0 0 200 200" fill="none" xmlns="http://www.w3.org/2000/svg">
<circle cx="100" cy="100" r="100" fill="#CBF4F1"/>
<g filter="url(#filter0_i_18_295)">
<path d="M134.454 151C136.412 151 138 149.543 138 147.745V71.9375C138 52.0898 120.763 36 99.5 36C78.237 36 61 52.0898 61 71.9375V147.745C61 149.543 62.5875 151 64.5458 151C65.606 151 66.6106 150.565 67.2841 149.813L94.4605 113.498C97.0708 110.586 101.929 110.586 104.54 113.498L131.716 149.813C132.389 150.565 133.394 151 134.454 151Z" fill="url(#paint0_linear_18_295)"/>
</g>
<defs>
<filter id="filter0_i_18_295" x="61" y="36" width="77" height="115" filterUnits="userSpaceOnUse" color-interpolation-filters="sRGB">
<feFlood flood-opacity="0" result="BackgroundImageFix"/>
<feBlend mode="normal" in="SourceGraphic" in2="BackgroundImageFix" result="shape"/>
<feColorMatrix in="SourceAlpha" type="matrix" values="0 0 0 0 0 0 0 0 0 0 0 0 0 0 0 0 0 0 127 0" result="hardAlpha"/>
<feOffset/>
<feGaussianBlur stdDeviation="7.5"/>
<feComposite in2="hardAlpha" operator="arithmetic" k2="-1" k3="1"/>
<feColorMatrix type="matrix" values="0 0 0 0 0 0 0 0 0 0 0 0 0 0 0 0 0 0 0.25 0"/>
<feBlend mode="normal" in2="shape" result="effect1_innerShadow_18_295"/>
</filter>
<linearGradient id="paint0_linear_18_295" x1="100" y1="0.5" x2="100" y2="151" gradientUnits="userSpaceOnUse">
<stop offset="0.201666" stop-color="#6A94A8"/>
<stop offset="1" stop-color="#9FE0DD"/>
</linearGradient>
</defs>
</svg>
