<svg width="278" height="90" viewBox="0 0 278 90" fill="none" xmlns="http://www.w3.org/2000/svg">
<path d="M5.33263 68V60.32H39.2206V68H5.33263ZM5.33263 8.48V0.799995H39.2206V8.48H5.33263ZM5.33263 35.36V27.68H37.3006V35.36H5.33263ZM0.820626 0.799995H8.98063V68H0.820626V0.799995ZM54.9459 54.464C55.8419 55.808 56.8659 57.056 58.0179 58.208C59.1699 59.36 60.4819 60.288 61.9539 60.992C63.4899 61.632 65.1539 61.952 66.9459 61.952C69.1219 61.952 70.8179 61.472 72.0339 60.512C73.3139 59.488 73.9539 58.112 73.9539 56.384C73.9539 54.848 73.4419 53.568 72.4179 52.544C71.4579 51.456 70.2099 50.56 68.6739 49.856C67.1379 49.088 65.5059 48.384 63.7779 47.744C61.8579 46.976 59.9059 46.08 57.9219 45.056C56.0019 43.968 54.3699 42.592 53.0259 40.928C51.7459 39.2 51.1059 37.056 51.1059 34.496C51.1059 31.872 51.7779 29.696 53.1219 27.968C54.5299 26.24 56.3219 24.96 58.4979 24.128C60.7379 23.296 63.0419 22.88 65.4099 22.88C67.7779 22.88 69.9859 23.264 72.0339 24.032C74.1459 24.8 76.0019 25.824 77.6019 27.104C79.2019 28.384 80.4499 29.856 81.3459 31.52L75.2019 35.456C73.9859 33.792 72.4499 32.416 70.5939 31.328C68.8019 30.24 66.7539 29.696 64.4499 29.696C62.8499 29.696 61.4739 30.048 60.3219 30.752C59.1699 31.456 58.5939 32.544 58.5939 34.016C58.5939 35.168 59.0419 36.192 59.9379 37.088C60.8339 37.984 61.9859 38.784 63.3939 39.488C64.8019 40.192 66.2739 40.864 67.8099 41.504C70.3699 42.528 72.7059 43.648 74.8179 44.864C76.9299 46.016 78.5939 47.424 79.8099 49.088C81.0899 50.752 81.7299 52.896 81.7299 55.52C81.7299 59.36 80.3219 62.56 77.5059 65.12C74.7539 67.68 71.1059 68.96 66.5619 68.96C63.6179 68.96 60.9619 68.448 58.5939 67.424C56.2259 66.336 54.2099 64.96 52.5459 63.296C50.9459 61.632 49.7299 59.936 48.8979 58.208L54.9459 54.464ZM95.2966 45.92C95.2966 48.992 95.9366 51.712 97.2166 54.08C98.5606 56.448 100.353 58.336 102.593 59.744C104.897 61.088 107.489 61.76 110.369 61.76C112.737 61.76 114.945 61.408 116.993 60.704C119.105 59.936 120.929 58.944 122.465 57.728C124.001 56.448 125.089 55.104 125.729 53.696V63.296C124.193 65.088 121.985 66.496 119.105 67.52C116.289 68.48 113.377 68.96 110.369 68.96C106.081 68.96 102.209 67.968 98.7526 65.984C95.2966 64 92.5446 61.28 90.4966 57.824C88.5126 54.304 87.5206 50.336 87.5206 45.92C87.5206 41.44 88.5126 37.472 90.4966 34.016C92.5446 30.56 95.2966 27.84 98.7526 25.856C102.209 23.872 106.081 22.88 110.369 22.88C113.377 22.88 116.289 23.392 119.105 24.416C121.985 25.376 124.193 26.752 125.729 28.544V38.144C125.089 36.672 124.001 35.328 122.465 34.112C120.929 32.896 119.105 31.936 116.993 31.232C114.945 30.464 112.737 30.08 110.369 30.08C107.489 30.08 104.897 30.752 102.593 32.096C100.353 33.44 98.5606 35.328 97.2166 37.76C95.9366 40.128 95.2966 42.848 95.2966 45.92ZM141.14 54.368C141.14 56.032 141.524 57.472 142.292 58.688C143.124 59.904 144.244 60.832 145.652 61.472C147.124 62.048 148.788 62.336 150.644 62.336C153.012 62.336 155.124 61.856 156.98 60.896C158.9 59.936 160.404 58.592 161.492 56.864C162.644 55.072 163.22 53.024 163.22 50.72L164.756 56.48C164.756 59.296 163.892 61.632 162.164 63.488C160.5 65.344 158.42 66.72 155.924 67.616C153.492 68.512 151.06 68.96 148.628 68.96C145.94 68.96 143.412 68.416 141.044 67.328C138.74 66.176 136.884 64.544 135.476 62.432C134.068 60.32 133.364 57.76 133.364 54.752C133.364 50.464 134.868 47.04 137.876 44.48C140.948 41.856 145.204 40.544 150.644 40.544C153.844 40.544 156.5 40.928 158.612 41.696C160.788 42.4 162.516 43.232 163.796 44.192C165.076 45.088 165.94 45.824 166.388 46.4V50.912C164.148 49.376 161.844 48.288 159.476 47.648C157.108 46.944 154.58 46.592 151.892 46.592C149.396 46.592 147.348 46.912 145.748 47.552C144.212 48.192 143.06 49.088 142.292 50.24C141.524 51.392 141.14 52.768 141.14 54.368ZM139.988 34.016L136.244 28.352C137.908 27.136 140.18 25.92 143.06 24.704C146.004 23.488 149.524 22.88 153.62 22.88C157.076 22.88 160.084 23.424 162.644 24.512C165.268 25.536 167.284 27.04 168.692 29.024C170.164 31.008 170.9 33.44 170.9 36.32V68H163.22V37.376C163.22 35.84 162.964 34.592 162.452 33.632C161.94 32.608 161.204 31.808 160.244 31.232C159.348 30.656 158.292 30.24 157.076 29.984C155.86 29.728 154.58 29.6 153.236 29.6C151.06 29.6 149.076 29.856 147.284 30.368C145.556 30.88 144.084 31.488 142.868 32.192C141.652 32.896 140.692 33.504 139.988 34.016ZM191.103 89.12H183.423V23.84H191.103V89.12ZM228.063 45.92C228.063 50.656 227.071 54.752 225.087 58.208C223.103 61.664 220.447 64.32 217.119 66.176C213.855 68.032 210.207 68.96 206.175 68.96C202.527 68.96 199.295 68.032 196.479 66.176C193.727 64.32 191.551 61.664 189.951 58.208C188.415 54.752 187.647 50.656 187.647 45.92C187.647 41.12 188.415 37.024 189.951 33.632C191.551 30.176 193.727 27.52 196.479 25.664C199.295 23.808 202.527 22.88 206.175 22.88C210.207 22.88 213.855 23.808 217.119 25.664C220.447 27.52 223.103 30.176 225.087 33.632C227.071 37.024 228.063 41.12 228.063 45.92ZM220.287 45.92C220.287 42.528 219.583 39.648 218.175 37.28C216.831 34.912 215.007 33.12 212.703 31.904C210.463 30.688 207.967 30.08 205.215 30.08C202.975 30.08 200.767 30.688 198.591 31.904C196.415 33.12 194.623 34.912 193.215 37.28C191.807 39.648 191.103 42.528 191.103 45.92C191.103 49.312 191.807 52.192 193.215 54.56C194.623 56.928 196.415 58.72 198.591 59.936C200.767 61.152 202.975 61.76 205.215 61.76C207.967 61.76 210.463 61.152 212.703 59.936C215.007 58.72 216.831 56.928 218.175 54.56C219.583 52.192 220.287 49.312 220.287 45.92ZM255.741 68.96C251.645 68.96 247.997 68 244.797 66.08C241.661 64.096 239.197 61.376 237.405 57.92C235.677 54.464 234.813 50.464 234.813 45.92C234.813 41.312 235.709 37.28 237.501 33.824C239.357 30.368 241.917 27.68 245.181 25.76C248.509 23.84 252.349 22.88 256.701 22.88C261.053 22.88 264.765 23.808 267.837 25.664C270.973 27.456 273.373 30.048 275.037 33.44C276.701 36.832 277.533 40.864 277.533 45.536C277.533 45.984 277.501 46.464 277.437 46.976C277.437 47.424 277.437 47.712 277.437 47.84H239.709V41.312H271.389L268.317 45.728C268.509 45.408 268.701 44.928 268.893 44.288C269.085 43.584 269.181 43.008 269.181 42.56C269.181 39.936 268.637 37.664 267.549 35.744C266.525 33.824 265.085 32.32 263.229 31.232C261.373 30.144 259.197 29.6 256.701 29.6C253.757 29.6 251.229 30.24 249.117 31.52C247.069 32.736 245.469 34.528 244.317 36.896C243.229 39.2 242.653 42.048 242.589 45.44C242.589 48.896 243.133 51.84 244.221 54.272C245.309 56.704 246.909 58.56 249.021 59.84C251.133 61.12 253.693 61.76 256.701 61.76C259.709 61.76 262.365 61.12 264.669 59.84C266.973 58.496 268.925 56.48 270.525 53.792L276.765 57.728C274.461 61.44 271.549 64.256 268.029 66.176C264.573 68.032 260.477 68.96 255.741 68.96Z" fill="#373737"/>
</svg>
