<svg width="873" height="190" viewBox="0 0 873 190" fill="none" xmlns="http://www.w3.org/2000/svg">
<path d="M186.989 128V120.32H220.877V128H186.989ZM186.989 68.48V60.8H220.877V68.48H186.989ZM186.989 95.36V87.68H218.957V95.36H186.989ZM182.477 60.8H190.637V128H182.477V60.8ZM236.602 114.464C237.498 115.808 238.522 117.056 239.674 118.208C240.826 119.36 242.138 120.288 243.61 120.992C245.146 121.632 246.81 121.952 248.602 121.952C250.778 121.952 252.474 121.472 253.69 120.512C254.97 119.488 255.61 118.112 255.61 116.384C255.61 114.848 255.098 113.568 254.074 112.544C253.114 111.456 251.866 110.56 250.33 109.856C248.794 109.088 247.162 108.384 245.434 107.744C243.514 106.976 241.562 106.08 239.578 105.056C237.658 103.968 236.026 102.592 234.682 100.928C233.402 99.2 232.762 97.056 232.762 94.496C232.762 91.872 233.434 89.696 234.778 87.968C236.186 86.24 237.978 84.96 240.154 84.128C242.394 83.296 244.698 82.88 247.066 82.88C249.434 82.88 251.642 83.264 253.69 84.032C255.802 84.8 257.658 85.824 259.258 87.104C260.858 88.384 262.106 89.856 263.002 91.52L256.858 95.456C255.642 93.792 254.106 92.416 252.25 91.328C250.458 90.24 248.41 89.696 246.106 89.696C244.506 89.696 243.13 90.048 241.978 90.752C240.826 91.456 240.25 92.544 240.25 94.016C240.25 95.168 240.698 96.192 241.594 97.088C242.49 97.984 243.642 98.784 245.05 99.488C246.458 100.192 247.93 100.864 249.466 101.504C252.026 102.528 254.362 103.648 256.474 104.864C258.586 106.016 260.25 107.424 261.466 109.088C262.746 110.752 263.386 112.896 263.386 115.52C263.386 119.36 261.978 122.56 259.162 125.12C256.41 127.68 252.762 128.96 248.218 128.96C245.274 128.96 242.618 128.448 240.25 127.424C237.882 126.336 235.866 124.96 234.202 123.296C232.602 121.632 231.386 119.936 230.554 118.208L236.602 114.464ZM276.953 105.92C276.953 108.992 277.593 111.712 278.873 114.08C280.217 116.448 282.009 118.336 284.249 119.744C286.553 121.088 289.145 121.76 292.025 121.76C294.393 121.76 296.601 121.408 298.649 120.704C300.761 119.936 302.585 118.944 304.121 117.728C305.657 116.448 306.745 115.104 307.385 113.696V123.296C305.849 125.088 303.641 126.496 300.761 127.52C297.945 128.48 295.033 128.96 292.025 128.96C287.737 128.96 283.865 127.968 280.409 125.984C276.953 124 274.201 121.28 272.153 117.824C270.169 114.304 269.177 110.336 269.177 105.92C269.177 101.44 270.169 97.472 272.153 94.016C274.201 90.56 276.953 87.84 280.409 85.856C283.865 83.872 287.737 82.88 292.025 82.88C295.033 82.88 297.945 83.392 300.761 84.416C303.641 85.376 305.849 86.752 307.385 88.544V98.144C306.745 96.672 305.657 95.328 304.121 94.112C302.585 92.896 300.761 91.936 298.649 91.232C296.601 90.464 294.393 90.08 292.025 90.08C289.145 90.08 286.553 90.752 284.249 92.096C282.009 93.44 280.217 95.328 278.873 97.76C277.593 100.128 276.953 102.848 276.953 105.92ZM322.797 114.368C322.797 116.032 323.181 117.472 323.949 118.688C324.781 119.904 325.901 120.832 327.309 121.472C328.781 122.048 330.445 122.336 332.301 122.336C334.669 122.336 336.781 121.856 338.637 120.896C340.557 119.936 342.061 118.592 343.149 116.864C344.301 115.072 344.877 113.024 344.877 110.72L346.413 116.48C346.413 119.296 345.549 121.632 343.821 123.488C342.157 125.344 340.077 126.72 337.581 127.616C335.149 128.512 332.717 128.96 330.285 128.96C327.597 128.96 325.069 128.416 322.701 127.328C320.397 126.176 318.541 124.544 317.133 122.432C315.725 120.32 315.021 117.76 315.021 114.752C315.021 110.464 316.525 107.04 319.533 104.48C322.605 101.856 326.861 100.544 332.301 100.544C335.501 100.544 338.157 100.928 340.269 101.696C342.445 102.4 344.173 103.232 345.453 104.192C346.733 105.088 347.597 105.824 348.045 106.4V110.912C345.805 109.376 343.501 108.288 341.133 107.648C338.765 106.944 336.237 106.592 333.549 106.592C331.053 106.592 329.005 106.912 327.405 107.552C325.869 108.192 324.717 109.088 323.949 110.24C323.181 111.392 322.797 112.768 322.797 114.368ZM321.645 94.016L317.901 88.352C319.565 87.136 321.837 85.92 324.717 84.704C327.661 83.488 331.181 82.88 335.277 82.88C338.733 82.88 341.741 83.424 344.301 84.512C346.925 85.536 348.941 87.04 350.349 89.024C351.821 91.008 352.557 93.44 352.557 96.32V128H344.877V97.376C344.877 95.84 344.621 94.592 344.109 93.632C343.597 92.608 342.861 91.808 341.901 91.232C341.005 90.656 339.949 90.24 338.733 89.984C337.517 89.728 336.237 89.6 334.893 89.6C332.717 89.6 330.733 89.856 328.941 90.368C327.213 90.88 325.741 91.488 324.525 92.192C323.309 92.896 322.349 93.504 321.645 94.016ZM372.759 149.12H365.079V83.84H372.759V149.12ZM409.719 105.92C409.719 110.656 408.727 114.752 406.743 118.208C404.759 121.664 402.103 124.32 398.775 126.176C395.511 128.032 391.863 128.96 387.831 128.96C384.183 128.96 380.951 128.032 378.135 126.176C375.383 124.32 373.207 121.664 371.607 118.208C370.071 114.752 369.303 110.656 369.303 105.92C369.303 101.12 370.071 97.024 371.607 93.632C373.207 90.176 375.383 87.52 378.135 85.664C380.951 83.808 384.183 82.88 387.831 82.88C391.863 82.88 395.511 83.808 398.775 85.664C402.103 87.52 404.759 90.176 406.743 93.632C408.727 97.024 409.719 101.12 409.719 105.92ZM401.943 105.92C401.943 102.528 401.239 99.648 399.831 97.28C398.487 94.912 396.663 93.12 394.359 91.904C392.119 90.688 389.623 90.08 386.871 90.08C384.631 90.08 382.423 90.688 380.247 91.904C378.071 93.12 376.279 94.912 374.871 97.28C373.463 99.648 372.759 102.528 372.759 105.92C372.759 109.312 373.463 112.192 374.871 114.56C376.279 116.928 378.071 118.72 380.247 119.936C382.423 121.152 384.631 121.76 386.871 121.76C389.623 121.76 392.119 121.152 394.359 119.936C396.663 118.72 398.487 116.928 399.831 114.56C401.239 112.192 401.943 109.312 401.943 105.92ZM437.397 128.96C433.301 128.96 429.653 128 426.453 126.08C423.317 124.096 420.853 121.376 419.061 117.92C417.333 114.464 416.469 110.464 416.469 105.92C416.469 101.312 417.365 97.28 419.157 93.824C421.013 90.368 423.573 87.68 426.837 85.76C430.165 83.84 434.005 82.88 438.357 82.88C442.709 82.88 446.421 83.808 449.493 85.664C452.629 87.456 455.029 90.048 456.693 93.44C458.357 96.832 459.189 100.864 459.189 105.536C459.189 105.984 459.157 106.464 459.093 106.976C459.093 107.424 459.093 107.712 459.093 107.84H421.365V101.312H453.045L449.973 105.728C450.165 105.408 450.357 104.928 450.549 104.288C450.741 103.584 450.837 103.008 450.837 102.56C450.837 99.936 450.293 97.664 449.205 95.744C448.181 93.824 446.741 92.32 444.885 91.232C443.029 90.144 440.853 89.6 438.357 89.6C435.413 89.6 432.885 90.24 430.773 91.52C428.725 92.736 427.125 94.528 425.973 96.896C424.885 99.2 424.309 102.048 424.245 105.44C424.245 108.896 424.789 111.84 425.877 114.272C426.965 116.704 428.565 118.56 430.677 119.84C432.789 121.12 435.349 121.76 438.357 121.76C441.365 121.76 444.021 121.12 446.325 119.84C448.629 118.496 450.581 116.48 452.181 113.792L458.421 117.728C456.117 121.44 453.205 124.256 449.685 126.176C446.229 128.032 442.133 128.96 437.397 128.96ZM498.977 60.8H507.137V120.32H533.537V128H498.977V60.8ZM545.172 114.368C545.172 116.032 545.556 117.472 546.324 118.688C547.156 119.904 548.276 120.832 549.684 121.472C551.156 122.048 552.82 122.336 554.676 122.336C557.044 122.336 559.156 121.856 561.012 120.896C562.932 119.936 564.436 118.592 565.524 116.864C566.676 115.072 567.252 113.024 567.252 110.72L568.788 116.48C568.788 119.296 567.924 121.632 566.196 123.488C564.532 125.344 562.452 126.72 559.956 127.616C557.524 128.512 555.092 128.96 552.66 128.96C549.972 128.96 547.444 128.416 545.076 127.328C542.772 126.176 540.916 124.544 539.508 122.432C538.1 120.32 537.396 117.76 537.396 114.752C537.396 110.464 538.9 107.04 541.908 104.48C544.98 101.856 549.236 100.544 554.676 100.544C557.876 100.544 560.532 100.928 562.644 101.696C564.82 102.4 566.548 103.232 567.828 104.192C569.108 105.088 569.972 105.824 570.42 106.4V110.912C568.18 109.376 565.876 108.288 563.508 107.648C561.14 106.944 558.612 106.592 555.924 106.592C553.428 106.592 551.38 106.912 549.78 107.552C548.244 108.192 547.092 109.088 546.324 110.24C545.556 111.392 545.172 112.768 545.172 114.368ZM544.02 94.016L540.276 88.352C541.94 87.136 544.212 85.92 547.092 84.704C550.036 83.488 553.556 82.88 557.652 82.88C561.108 82.88 564.116 83.424 566.676 84.512C569.3 85.536 571.316 87.04 572.724 89.024C574.196 91.008 574.932 93.44 574.932 96.32V128H567.252V97.376C567.252 95.84 566.996 94.592 566.484 93.632C565.972 92.608 565.236 91.808 564.276 91.232C563.38 90.656 562.324 90.24 561.108 89.984C559.892 89.728 558.612 89.6 557.268 89.6C555.092 89.6 553.108 89.856 551.316 90.368C549.588 90.88 548.116 91.488 546.9 92.192C545.684 92.896 544.724 93.504 544.02 94.016ZM595.614 110.72C595.614 114.24 596.414 116.96 598.014 118.88C599.614 120.8 601.95 121.76 605.022 121.76C607.262 121.76 609.214 121.312 610.878 120.416C612.606 119.456 613.918 118.144 614.814 116.48C615.774 114.816 616.254 112.896 616.254 110.72V83.84H623.934V128H616.254V121.088C614.782 123.712 612.958 125.696 610.782 127.04C608.606 128.32 606.046 128.96 603.102 128.96C598.494 128.96 594.814 127.392 592.062 124.256C589.31 121.12 587.934 116.928 587.934 111.68V83.84H595.614V110.72ZM666.692 101.12C666.692 97.472 665.892 94.72 664.292 92.864C662.692 91.008 660.356 90.08 657.284 90.08C655.044 90.08 653.06 90.56 651.332 91.52C649.668 92.416 648.356 93.696 647.396 95.36C646.5 97.024 646.052 98.944 646.052 101.12V128H638.372V83.84H646.052V90.752C647.524 88.064 649.348 86.08 651.524 84.8C653.764 83.52 656.324 82.88 659.204 82.88C663.876 82.88 667.556 84.448 670.244 87.584C672.996 90.656 674.372 94.848 674.372 100.16V128H666.692V101.12ZM692.265 105.92C692.265 108.992 692.905 111.712 694.185 114.08C695.529 116.448 697.321 118.336 699.561 119.744C701.865 121.088 704.457 121.76 707.337 121.76C709.705 121.76 711.913 121.408 713.961 120.704C716.073 119.936 717.897 118.944 719.433 117.728C720.969 116.448 722.057 115.104 722.697 113.696V123.296C721.161 125.088 718.953 126.496 716.073 127.52C713.257 128.48 710.345 128.96 707.337 128.96C703.049 128.96 699.177 127.968 695.721 125.984C692.265 124 689.513 121.28 687.465 117.824C685.481 114.304 684.489 110.336 684.489 105.92C684.489 101.44 685.481 97.472 687.465 94.016C689.513 90.56 692.265 87.84 695.721 85.856C699.177 83.872 703.049 82.88 707.337 82.88C710.345 82.88 713.257 83.392 716.073 84.416C718.953 85.376 721.161 86.752 722.697 88.544V98.144C722.057 96.672 720.969 95.328 719.433 94.112C717.897 92.896 716.073 91.936 713.961 91.232C711.913 90.464 709.705 90.08 707.337 90.08C704.457 90.08 701.865 90.752 699.561 92.096C697.321 93.44 695.529 95.328 694.185 97.76C692.905 100.128 692.265 102.848 692.265 105.92ZM742.333 53.12V128H734.653V53.12H742.333ZM762.973 101.12C762.973 97.472 762.173 94.72 760.573 92.864C759.037 91.008 756.701 90.08 753.565 90.08C751.325 90.08 749.341 90.56 747.613 91.52C745.949 92.48 744.637 93.792 743.677 95.456C742.781 97.12 742.333 99.008 742.333 101.12H739.837C739.837 97.6 740.509 94.496 741.853 91.808C743.197 89.056 745.021 86.88 747.325 85.28C749.693 83.68 752.413 82.88 755.485 82.88C758.557 82.88 761.213 83.52 763.453 84.8C765.757 86.08 767.517 88 768.733 90.56C770.013 93.12 770.653 96.32 770.653 100.16V128H762.973V101.12ZM802.179 128.96C798.083 128.96 794.435 128 791.235 126.08C788.099 124.096 785.635 121.376 783.843 117.92C782.115 114.464 781.251 110.464 781.251 105.92C781.251 101.312 782.147 97.28 783.939 93.824C785.795 90.368 788.355 87.68 791.619 85.76C794.947 83.84 798.787 82.88 803.139 82.88C807.491 82.88 811.203 83.808 814.275 85.664C817.411 87.456 819.811 90.048 821.475 93.44C823.139 96.832 823.971 100.864 823.971 105.536C823.971 105.984 823.939 106.464 823.875 106.976C823.875 107.424 823.875 107.712 823.875 107.84H786.147V101.312H817.827L814.755 105.728C814.947 105.408 815.139 104.928 815.331 104.288C815.523 103.584 815.619 103.008 815.619 102.56C815.619 99.936 815.075 97.664 813.987 95.744C812.963 93.824 811.523 92.32 809.667 91.232C807.811 90.144 805.635 89.6 803.139 89.6C800.195 89.6 797.667 90.24 795.555 91.52C793.507 92.736 791.907 94.528 790.755 96.896C789.667 99.2 789.091 102.048 789.027 105.44C789.027 108.896 789.571 111.84 790.659 114.272C791.747 116.704 793.347 118.56 795.459 119.84C797.571 121.12 800.131 121.76 803.139 121.76C806.147 121.76 808.803 121.12 811.107 119.84C813.411 118.496 815.363 116.48 816.963 113.792L823.203 117.728C820.899 121.44 817.987 124.256 814.467 126.176C811.011 128.032 806.915 128.96 802.179 128.96ZM842.177 83.84V128H834.497V83.84H842.177ZM855.521 92.288C854.497 91.52 853.569 90.976 852.737 90.656C851.905 90.272 850.849 90.08 849.569 90.08C847.649 90.08 846.145 90.56 845.057 91.52C843.969 92.48 843.201 93.792 842.753 95.456C842.369 97.12 842.177 99.008 842.177 101.12H838.721C838.721 97.6 839.329 94.496 840.545 91.808C841.825 89.056 843.457 86.88 845.441 85.28C847.425 83.68 849.441 82.88 851.489 82.88C853.089 82.88 854.561 83.104 855.905 83.552C857.313 83.936 858.593 84.736 859.745 85.952L855.521 92.288Z" fill="#FEF9E2"/>
<path d="M120.102 189.367C123.726 189.367 126.663 186.43 126.663 182.806V59.1771C126.663 26.4945 98.3083 0 63.3313 0C28.3544 0 0 26.4945 0 59.1771V182.806C0 186.43 2.93716 189.367 6.56033 189.367C8.73248 189.367 10.7638 188.292 11.9852 186.495L55.0621 123.147C59.0305 117.311 67.6322 117.311 71.6006 123.147L114.677 186.495C115.899 188.292 117.93 189.367 120.102 189.367Z" fill="#FEF9E2"/>
</svg>
