<svg width="77" height="115" viewBox="0 0 77 115" fill="none" xmlns="http://www.w3.org/2000/svg">
<g filter="url(#filter0_i_18_297)">
<path d="M73.4542 115C75.4125 115 77 113.543 77 111.745V35.9375C77 16.0898 59.763 0 38.5 0C17.237 0 0 16.0898 0 35.9375V111.745C0 113.543 1.5875 115 3.54577 115C4.60601 115 5.61061 114.565 6.28414 113.813L33.4605 77.4984C36.0708 74.5856 40.9292 74.5856 43.5395 77.4984L70.7159 113.813C71.3894 114.565 72.394 115 73.4542 115Z" fill="url(#paint0_linear_18_297)"/>
</g>
<defs>
<filter id="filter0_i_18_297" x="0" y="0" width="77" height="115" filterUnits="userSpaceOnUse" color-interpolation-filters="sRGB">
<feFlood flood-opacity="0" result="BackgroundImageFix"/>
<feBlend mode="normal" in="SourceGraphic" in2="BackgroundImageFix" result="shape"/>
<feColorMatrix in="SourceAlpha" type="matrix" values="0 0 0 0 0 0 0 0 0 0 0 0 0 0 0 0 0 0 127 0" result="hardAlpha"/>
<feOffset/>
<feGaussianBlur stdDeviation="7.5"/>
<feComposite in2="hardAlpha" operator="arithmetic" k2="-1" k3="1"/>
<feColorMatrix type="matrix" values="0 0 0 0 0 0 0 0 0 0 0 0 0 0 0 0 0 0 0.25 0"/>
<feBlend mode="normal" in2="shape" result="effect1_innerShadow_18_297"/>
</filter>
<linearGradient id="paint0_linear_18_297" x1="39" y1="-35.5" x2="39" y2="115" gradientUnits="userSpaceOnUse">
<stop offset="0.201666" stop-color="#6A94A8"/>
<stop offset="1" stop-color="#9FE0DD"/>
</linearGradient>
</defs>
</svg>
